<svg width="417" height="166" viewBox="0 0 417 166" fill="none" xmlns="http://www.w3.org/2000/svg">
<g filter="url(#filter0_d_2_28)">
<path d="M49.224 27.024C49.032 29.472 48.888 31.824 48.792 34.08C48.744 36.336 48.72 38.064 48.72 39.264C48.72 40.32 48.744 41.328 48.792 42.288C48.84 43.248 48.888 44.064 48.936 44.736H47.28C46.512 40.704 45.528 37.512 44.328 35.16C43.176 32.808 41.784 31.152 40.152 30.192C38.52 29.184 36.6 28.68 34.392 28.68H32.736V69.792C32.736 71.712 32.928 73.152 33.312 74.112C33.744 75.072 34.512 75.72 35.616 76.056C36.72 76.344 38.328 76.512 40.44 76.56V78C38.952 77.952 36.96 77.904 34.464 77.856C32.016 77.808 29.448 77.784 26.76 77.784C24.12 77.784 21.624 77.808 19.272 77.856C16.92 77.904 15.024 77.952 13.584 78V76.56C15.744 76.512 17.376 76.344 18.48 76.056C19.584 75.72 20.328 75.072 20.712 74.112C21.096 73.152 21.288 71.712 21.288 69.792V28.68H19.704C17.496 28.68 15.576 29.184 13.944 30.192C12.312 31.152 10.92 32.808 9.768 35.16C8.616 37.464 7.608 40.656 6.744 44.736H5.088C5.184 44.064 5.232 43.248 5.232 42.288C5.28 41.328 5.304 40.32 5.304 39.264C5.304 38.064 5.256 36.336 5.16 34.08C5.112 31.824 4.992 29.472 4.8 27.024C7.008 27.072 9.408 27.12 12 27.168C14.64 27.216 17.28 27.24 19.92 27.24C22.56 27.24 24.936 27.24 27.048 27.24C29.208 27.24 31.584 27.24 34.176 27.24C36.816 27.24 39.456 27.216 42.096 27.168C44.736 27.12 47.112 27.072 49.224 27.024ZM84.0698 78V76.56C85.6058 76.464 86.7578 76.272 87.5258 75.984C88.2938 75.696 88.7978 75.12 89.0378 74.256C89.3258 73.392 89.4698 72.096 89.4698 70.368V34.656C89.4698 32.88 89.3258 31.584 89.0378 30.768C88.7978 29.904 88.2698 29.328 87.4537 29.04C86.6858 28.704 85.5578 28.512 84.0698 28.464V27.024C85.3658 27.072 87.0458 27.12 89.1097 27.168C91.2218 27.216 93.3098 27.24 95.3738 27.24C97.5818 27.24 99.6458 27.216 101.566 27.168C103.534 27.12 105.118 27.072 106.318 27.024V28.464C104.782 28.512 103.606 28.704 102.79 29.04C102.022 29.328 101.518 29.904 101.278 30.768C101.038 31.584 100.918 32.88 100.918 34.656V70.368C100.918 72.096 101.038 73.392 101.278 74.256C101.566 75.12 102.094 75.696 102.862 75.984C103.63 76.272 104.782 76.464 106.318 76.56V78C105.118 77.904 103.534 77.856 101.566 77.856C99.6458 77.808 97.5818 77.784 95.3738 77.784C93.3098 77.784 91.2218 77.808 89.1097 77.856C87.0458 77.856 85.3658 77.904 84.0698 78ZM53.5418 78V76.56C55.0778 76.464 56.2298 76.272 56.9978 75.984C57.7658 75.696 58.2698 75.12 58.5098 74.256C58.7978 73.392 58.9418 72.096 58.9418 70.368V34.656C58.9418 32.88 58.7978 31.584 58.5098 30.768C58.2698 29.904 57.7418 29.328 56.9258 29.04C56.1578 28.704 55.0298 28.512 53.5418 28.464V27.024C54.7898 27.072 56.3978 27.12 58.3658 27.168C60.3818 27.216 62.5658 27.24 64.9178 27.24C66.9338 27.24 68.9258 27.216 70.8938 27.168C72.8618 27.12 74.4938 27.072 75.7898 27.024V28.464C74.2538 28.512 73.0778 28.704 72.2617 29.04C71.4938 29.328 70.9898 29.904 70.7498 30.768C70.5098 31.584 70.3898 32.88 70.3898 34.656V70.368C70.3898 72.096 70.5098 73.392 70.7498 74.256C71.0378 75.12 71.5658 75.696 72.3338 75.984C73.1018 76.272 74.2538 76.464 75.7898 76.56V78C74.4938 77.904 72.8618 77.856 70.8938 77.856C68.9258 77.808 66.9338 77.784 64.9178 77.784C62.5658 77.784 60.3818 77.808 58.3658 77.856C56.3978 77.856 54.7898 77.904 53.5418 78ZM65.7098 53.088V51.648H94.1498V53.088H65.7098ZM149.648 27.024C149.456 29.136 149.312 31.176 149.216 33.144C149.168 35.112 149.144 36.624 149.144 37.68C149.144 38.64 149.168 39.552 149.216 40.416C149.264 41.28 149.312 42 149.36 42.576H147.704C147.224 39.072 146.48 36.312 145.472 34.296C144.464 32.232 143.144 30.792 141.512 29.976C139.928 29.112 138.056 28.68 135.896 28.68H132.944C131.552 28.68 130.496 28.8 129.776 29.04C129.056 29.28 128.576 29.76 128.336 30.48C128.096 31.2 127.976 32.304 127.976 33.792V71.232C127.976 72.72 128.096 73.824 128.336 74.544C128.576 75.264 129.056 75.744 129.776 75.984C130.496 76.224 131.552 76.344 132.944 76.344H136.472C138.632 76.344 140.528 75.888 142.16 74.976C143.84 74.016 145.256 72.408 146.408 70.152C147.608 67.896 148.52 64.848 149.144 61.008H150.8C150.656 62.544 150.584 64.56 150.584 67.056C150.584 68.16 150.608 69.72 150.656 71.736C150.704 73.752 150.848 75.84 151.088 78C148.64 77.904 145.88 77.856 142.808 77.856C139.736 77.808 137 77.784 134.6 77.784C133.4 77.784 131.864 77.784 129.992 77.784C128.12 77.784 126.104 77.808 123.944 77.856C121.784 77.856 119.6 77.88 117.392 77.928C115.184 77.928 113.096 77.952 111.128 78V76.56C112.664 76.464 113.816 76.272 114.584 75.984C115.352 75.696 115.856 75.12 116.096 74.256C116.384 73.392 116.528 72.096 116.528 70.368V34.656C116.528 32.88 116.384 31.584 116.096 30.768C115.856 29.904 115.328 29.328 114.512 29.04C113.744 28.704 112.616 28.512 111.128 28.464V27.024C113.096 27.072 115.184 27.12 117.392 27.168C119.6 27.168 121.784 27.192 123.944 27.24C126.104 27.24 128.12 27.24 129.992 27.24C131.864 27.24 133.4 27.24 134.6 27.24C136.808 27.24 139.304 27.24 142.088 27.24C144.92 27.192 147.44 27.12 149.648 27.024ZM138.416 51.648C138.416 51.648 138.416 51.888 138.416 52.368C138.416 52.848 138.416 53.088 138.416 53.088H125.816C125.816 53.088 125.816 52.848 125.816 52.368C125.816 51.888 125.816 51.648 125.816 51.648H138.416ZM140.504 42.144C140.312 44.88 140.216 46.968 140.216 48.408C140.264 49.848 140.288 51.168 140.288 52.368C140.288 53.568 140.312 54.888 140.36 56.328C140.408 57.768 140.528 59.856 140.72 62.592H139.064C138.824 60.912 138.368 59.352 137.696 57.912C137.072 56.472 136.16 55.32 134.96 54.456C133.76 53.544 132.2 53.088 130.28 53.088V51.648C131.72 51.648 132.944 51.36 133.952 50.784C134.96 50.16 135.776 49.368 136.4 48.408C137.072 47.4 137.6 46.344 137.984 45.24C138.368 44.136 138.656 43.104 138.848 42.144H140.504ZM196.245 27.024V28.464C194.613 28.512 193.365 28.704 192.501 29.04C191.685 29.328 191.133 29.904 190.845 30.768C190.557 31.584 190.413 32.88 190.413 34.656V71.232C190.413 72.72 190.509 73.824 190.701 74.544C190.941 75.264 191.373 75.744 191.997 75.984C192.669 76.224 193.653 76.344 194.949 76.344H198.477C200.109 76.344 201.645 75.96 203.085 75.192C204.525 74.424 205.821 73.344 206.973 71.952C208.125 70.512 209.085 68.808 209.853 66.84C210.621 64.872 211.197 62.688 211.581 60.288H213.237C213.093 61.92 213.021 64.032 213.021 66.624C213.021 67.728 213.045 69.336 213.093 71.448C213.141 73.56 213.285 75.744 213.525 78C211.077 77.904 208.317 77.856 205.245 77.856C202.173 77.808 199.437 77.784 197.037 77.784C195.837 77.784 194.301 77.784 192.429 77.784C190.557 77.784 188.541 77.808 186.381 77.856C184.221 77.856 182.037 77.88 179.829 77.928C177.621 77.928 175.533 77.952 173.565 78V76.56C175.101 76.464 176.253 76.272 177.021 75.984C177.789 75.696 178.293 75.12 178.533 74.256C178.821 73.392 178.965 72.096 178.965 70.368V34.656C178.965 32.88 178.821 31.584 178.533 30.768C178.293 29.904 177.765 29.328 176.949 29.04C176.181 28.704 175.053 28.512 173.565 28.464V27.024C174.765 27.072 176.373 27.12 178.389 27.168C180.453 27.216 182.637 27.24 184.941 27.24C187.053 27.24 189.117 27.216 191.133 27.168C193.197 27.12 194.901 27.072 196.245 27.024ZM243.717 26.016C248.805 26.016 253.245 27.048 257.037 29.112C260.877 31.176 263.853 34.152 265.965 38.04C268.077 41.88 269.133 46.56 269.133 52.08C269.133 57.456 268.053 62.16 265.893 66.192C263.733 70.224 260.709 73.368 256.821 75.624C252.981 77.88 248.589 79.008 243.645 79.008C238.557 79.008 234.093 77.976 230.253 75.912C226.461 73.848 223.509 70.872 221.397 66.984C219.285 63.096 218.229 58.416 218.229 52.944C218.229 47.568 219.309 42.864 221.469 38.832C223.677 34.8 226.677 31.656 230.469 29.4C234.309 27.144 238.725 26.016 243.717 26.016ZM243.429 27.312C240.741 27.312 238.389 28.392 236.373 30.552C234.405 32.712 232.869 35.688 231.765 39.48C230.709 43.272 230.181 47.664 230.181 52.656C230.181 57.744 230.781 62.184 231.981 65.976C233.229 69.72 234.885 72.624 236.949 74.688C239.061 76.704 241.389 77.712 243.933 77.712C246.621 77.712 248.949 76.632 250.917 74.472C252.933 72.312 254.469 69.336 255.525 65.544C256.629 61.704 257.181 57.312 257.181 52.368C257.181 47.232 256.557 42.792 255.309 39.048C254.109 35.304 252.453 32.424 250.341 30.408C248.277 28.344 245.973 27.312 243.429 27.312ZM300.811 26.016C303.979 26.016 306.571 26.496 308.587 27.456C310.651 28.368 312.475 29.448 314.059 30.696C315.019 31.416 315.739 31.512 316.219 30.984C316.747 30.408 317.107 29.088 317.299 27.024H318.955C318.859 28.896 318.787 31.176 318.739 33.864C318.691 36.504 318.667 40.032 318.667 44.448H317.011C316.771 42.24 316.459 40.368 316.075 38.832C315.691 37.248 315.163 35.856 314.491 34.656C313.819 33.456 312.859 32.376 311.611 31.416C310.411 30.216 309.019 29.328 307.435 28.752C305.851 28.176 304.195 27.888 302.467 27.888C299.875 27.888 297.667 28.584 295.843 29.976C294.019 31.32 292.531 33.168 291.379 35.52C290.275 37.872 289.459 40.536 288.931 43.512C288.403 46.44 288.139 49.488 288.139 52.656C288.139 55.872 288.403 58.968 288.931 61.944C289.507 64.872 290.371 67.488 291.523 69.792C292.723 72.096 294.259 73.92 296.131 75.264C298.003 76.608 300.211 77.28 302.755 77.28C304.339 77.28 305.923 76.992 307.507 76.416C309.139 75.792 310.531 74.904 311.683 73.752C313.555 72.312 314.827 70.536 315.499 68.424C316.171 66.264 316.675 63.408 317.011 59.856H318.667C318.667 64.416 318.691 68.112 318.739 70.944C318.787 73.728 318.859 76.08 318.955 78H317.299C317.107 75.936 316.771 74.64 316.291 74.112C315.859 73.584 315.115 73.656 314.059 74.328C312.283 75.576 310.387 76.68 308.371 77.64C306.403 78.552 303.859 79.008 300.739 79.008C295.651 79.008 291.187 77.976 287.347 75.912C283.555 73.848 280.603 70.872 278.491 66.984C276.379 63.096 275.323 58.416 275.323 52.944C275.323 47.568 276.403 42.864 278.563 38.832C280.771 34.8 283.771 31.656 287.563 29.4C291.403 27.144 295.819 26.016 300.811 26.016ZM349.488 26.88L366.984 71.952C367.656 73.68 368.4 74.88 369.216 75.552C370.08 76.176 370.848 76.512 371.52 76.56V78C370.08 77.904 368.376 77.856 366.408 77.856C364.488 77.808 362.544 77.784 360.576 77.784C358.368 77.784 356.28 77.808 354.312 77.856C352.344 77.856 350.784 77.904 349.632 78V76.56C352.08 76.464 353.616 76.056 354.24 75.336C354.912 74.568 354.768 72.96 353.808 70.512L341.568 37.032L342.864 35.16L331.92 63.672C330.864 66.312 330.216 68.472 329.976 70.152C329.784 71.832 329.904 73.128 330.336 74.04C330.816 74.952 331.56 75.6 332.568 75.984C333.624 76.32 334.872 76.512 336.312 76.56V78C334.728 77.904 333.216 77.856 331.776 77.856C330.336 77.808 328.872 77.784 327.384 77.784C326.328 77.784 325.32 77.808 324.36 77.856C323.448 77.856 322.632 77.904 321.912 78V76.56C322.92 76.368 323.952 75.72 325.008 74.616C326.064 73.512 327.096 71.64 328.104 69L344.52 26.88C345.288 26.928 346.104 26.952 346.968 26.952C347.88 26.952 348.72 26.928 349.488 26.88ZM354.528 57.264V58.704H333.072L333.792 57.264H354.528ZM394.737 27.024V28.464C393.105 28.512 391.857 28.704 390.993 29.04C390.177 29.328 389.625 29.904 389.337 30.768C389.049 31.584 388.905 32.88 388.905 34.656V71.232C388.905 72.72 389.001 73.824 389.193 74.544C389.433 75.264 389.865 75.744 390.489 75.984C391.161 76.224 392.145 76.344 393.441 76.344H396.969C398.601 76.344 400.137 75.96 401.577 75.192C403.017 74.424 404.313 73.344 405.465 71.952C406.617 70.512 407.577 68.808 408.345 66.84C409.113 64.872 409.689 62.688 410.073 60.288H411.729C411.585 61.92 411.513 64.032 411.513 66.624C411.513 67.728 411.537 69.336 411.585 71.448C411.633 73.56 411.777 75.744 412.017 78C409.569 77.904 406.809 77.856 403.737 77.856C400.665 77.808 397.929 77.784 395.529 77.784C394.329 77.784 392.793 77.784 390.921 77.784C389.049 77.784 387.033 77.808 384.873 77.856C382.713 77.856 380.529 77.88 378.321 77.928C376.113 77.928 374.025 77.952 372.057 78V76.56C373.593 76.464 374.745 76.272 375.513 75.984C376.281 75.696 376.785 75.12 377.025 74.256C377.313 73.392 377.457 72.096 377.457 70.368V34.656C377.457 32.88 377.313 31.584 377.025 30.768C376.785 29.904 376.257 29.328 375.441 29.04C374.673 28.704 373.545 28.512 372.057 28.464V27.024C373.257 27.072 374.865 27.12 376.881 27.168C378.945 27.216 381.129 27.24 383.433 27.24C385.545 27.24 387.609 27.216 389.625 27.168C391.689 27.12 393.393 27.072 394.737 27.024Z" fill="black" fill-opacity="0.75" shape-rendering="crispEdges"/>
</g>
<g filter="url(#filter1_d_2_28)">
<path d="M24.848 157.024V156.208C26.544 156.144 27.856 155.44 28.784 154.096C29.744 152.784 30.224 150.832 30.224 148.24V128.416C30.224 126.976 30 125.92 29.552 125.248C29.104 124.544 28.24 124.192 26.96 124.192V123.184C27.984 123.28 28.976 123.328 29.936 123.328C31.152 123.328 32.288 123.28 33.344 123.184C34.4 123.056 35.376 122.88 36.272 122.656V143.152C36.272 144.88 36.16 146.432 35.936 147.808C35.712 149.184 35.344 150.4 34.832 151.456C34.352 152.512 33.696 153.456 32.864 154.288C32.064 155.088 31.008 155.744 29.696 156.256C28.384 156.768 26.768 157.024 24.848 157.024ZM32.816 110.944C33.968 110.944 34.912 111.264 35.648 111.904C36.384 112.544 36.752 113.392 36.752 114.448C36.752 115.504 36.384 116.352 35.648 116.992C34.912 117.632 33.968 117.952 32.816 117.952C31.664 117.952 30.72 117.632 29.984 116.992C29.248 116.352 28.88 115.504 28.88 114.448C28.88 113.392 29.248 112.544 29.984 111.904C30.72 111.264 31.664 110.944 32.816 110.944ZM64.2133 122.656V142.816C64.2133 144.256 64.4533 145.328 64.9333 146.032C65.4133 146.704 66.2613 147.04 67.4773 147.04V148.048C66.4853 147.952 65.4933 147.904 64.5013 147.904C63.3173 147.904 62.1813 147.952 61.0933 148.048C60.0373 148.144 59.0613 148.32 58.1653 148.576V143.776C57.3653 145.536 56.2613 146.8 54.8533 147.568C53.4773 148.304 51.9893 148.672 50.3893 148.672C49.1413 148.672 48.0853 148.496 47.2213 148.144C46.3893 147.824 45.7173 147.376 45.2053 146.8C44.6613 146.192 44.2773 145.392 44.0533 144.4C43.8293 143.408 43.7173 142.128 43.7173 140.56V128.416C43.7173 126.976 43.4773 125.92 42.9973 125.248C42.5493 124.544 41.7013 124.192 40.4533 124.192V123.184C41.4773 123.28 42.4693 123.328 43.4293 123.328C44.6133 123.328 45.7333 123.28 46.7893 123.184C47.8773 123.056 48.8693 122.88 49.7653 122.656V142.24C49.7653 143.104 49.8293 143.872 49.9573 144.544C50.1173 145.216 50.4213 145.76 50.8693 146.176C51.3173 146.56 51.9893 146.752 52.8853 146.752C53.8773 146.752 54.7733 146.464 55.5733 145.888C56.3733 145.312 56.9973 144.528 57.4453 143.536C57.9253 142.544 58.1653 141.424 58.1653 140.176V128.416C58.1653 126.976 57.9253 125.92 57.4453 125.248C56.9973 124.544 56.1493 124.192 54.9013 124.192V123.184C55.9253 123.28 56.9173 123.328 57.8773 123.328C59.0613 123.328 60.1813 123.28 61.2373 123.184C62.3253 123.056 63.3173 122.88 64.2133 122.656ZM75.6219 110.944C76.7739 110.944 77.7179 111.264 78.4539 111.904C79.1899 112.544 79.5579 113.392 79.5579 114.448C79.5579 115.504 79.1899 116.352 78.4539 116.992C77.7179 117.632 76.7739 117.952 75.6219 117.952C74.4699 117.952 73.5259 117.632 72.7899 116.992C72.0539 116.352 71.6859 115.504 71.6859 114.448C71.6859 113.392 72.0539 112.544 72.7899 111.904C73.5259 111.264 74.4699 110.944 75.6219 110.944ZM78.9819 122.656V143.536C78.9819 144.88 79.2219 145.792 79.7019 146.272C80.2139 146.752 81.0619 146.992 82.2459 146.992V148C81.6699 147.968 80.7899 147.936 79.6059 147.904C78.4219 147.84 77.2219 147.808 76.0059 147.808C74.8219 147.808 73.6219 147.84 72.4059 147.904C71.1899 147.936 70.2779 147.968 69.6699 148V146.992C70.8539 146.992 71.6859 146.752 72.1659 146.272C72.6779 145.792 72.9339 144.88 72.9339 143.536V128.464C72.9339 126.992 72.6939 125.92 72.2139 125.248C71.7659 124.544 70.9179 124.192 69.6699 124.192V123.184C70.6939 123.28 71.6859 123.328 72.6459 123.328C73.8299 123.328 74.9499 123.28 76.0059 123.184C77.0939 123.056 78.0859 122.88 78.9819 122.656ZM96.7235 122.512C97.9075 122.512 98.9955 122.656 99.9875 122.944C101.012 123.2 101.892 123.568 102.628 124.048C103.396 124.528 104.004 125.136 104.452 125.872C104.9 126.576 105.124 127.36 105.124 128.224C105.124 129.28 104.804 130.128 104.164 130.768C103.524 131.408 102.724 131.728 101.764 131.728C100.772 131.728 99.9555 131.44 99.3155 130.864C98.7075 130.288 98.4035 129.52 98.4035 128.56C98.4035 127.632 98.6755 126.864 99.2195 126.256C99.7635 125.648 100.42 125.248 101.188 125.056C100.9 124.64 100.452 124.304 99.8435 124.048C99.2355 123.76 98.5635 123.616 97.8275 123.616C96.8675 123.616 96.0035 123.872 95.2355 124.384C94.4675 124.864 93.7955 125.6 93.2195 126.592C92.6755 127.552 92.2435 128.752 91.9235 130.192C91.6355 131.6 91.4915 133.232 91.4915 135.088C91.4915 137.68 91.7955 139.728 92.4035 141.232C93.0435 142.736 93.8595 143.808 94.8515 144.448C95.8435 145.056 96.8995 145.36 98.0195 145.36C98.6915 145.36 99.4115 145.232 100.18 144.976C100.948 144.72 101.7 144.288 102.436 143.68C103.204 143.072 103.892 142.208 104.5 141.088L105.412 141.424C105.06 142.544 104.484 143.664 103.684 144.784C102.916 145.904 101.908 146.832 100.66 147.568C99.4115 148.304 97.8915 148.672 96.0995 148.672C94.0515 148.672 92.1955 148.208 90.5315 147.28C88.8675 146.32 87.5395 144.88 86.5475 142.96C85.5875 141.04 85.1075 138.656 85.1075 135.808C85.1075 132.992 85.6035 130.608 86.5955 128.656C87.5875 126.672 88.9635 125.152 90.7235 124.096C92.5155 123.04 94.5155 122.512 96.7235 122.512ZM120.203 122.512C123.019 122.512 125.227 123.36 126.827 125.056C128.427 126.752 129.227 129.456 129.227 133.168H113.051L113.003 132.256H123.659C123.723 130.688 123.627 129.248 123.371 127.936C123.115 126.592 122.699 125.52 122.123 124.72C121.579 123.92 120.859 123.52 119.963 123.52C118.747 123.52 117.691 124.24 116.795 125.68C115.899 127.088 115.339 129.408 115.115 132.64L115.307 132.928C115.243 133.344 115.195 133.792 115.163 134.272C115.163 134.752 115.163 135.232 115.163 135.712C115.163 137.92 115.483 139.744 116.123 141.184C116.763 142.624 117.595 143.68 118.619 144.352C119.643 145.024 120.699 145.36 121.787 145.36C122.523 145.36 123.275 145.248 124.043 145.024C124.811 144.8 125.563 144.384 126.299 143.776C127.035 143.168 127.707 142.304 128.315 141.184L129.227 141.568C128.875 142.688 128.283 143.808 127.451 144.928C126.651 146.016 125.611 146.912 124.331 147.616C123.051 148.32 121.547 148.672 119.819 148.672C117.643 148.672 115.723 148.192 114.059 147.232C112.395 146.272 111.099 144.848 110.171 142.96C109.243 141.04 108.779 138.704 108.779 135.952C108.779 133.04 109.259 130.592 110.219 128.608C111.211 126.624 112.571 125.12 114.299 124.096C116.027 123.04 117.995 122.512 120.203 122.512ZM148.09 122.512C149.082 122.512 149.898 122.72 150.538 123.136C151.21 123.552 151.706 124.08 152.026 124.72C152.346 125.36 152.506 126.032 152.506 126.736C152.506 127.792 152.186 128.672 151.546 129.376C150.938 130.08 150.122 130.432 149.098 130.432C148.138 130.432 147.354 130.176 146.746 129.664C146.138 129.152 145.834 128.448 145.834 127.552C145.834 126.752 146.026 126.08 146.41 125.536C146.826 124.992 147.29 124.56 147.802 124.24C147.45 124.048 147.05 123.984 146.602 124.048C145.834 124.112 145.13 124.384 144.49 124.864C143.85 125.344 143.306 125.936 142.858 126.64C142.41 127.344 142.058 128.096 141.802 128.896C141.578 129.696 141.466 130.464 141.466 131.2V143.056C141.466 144.624 141.866 145.68 142.666 146.224C143.466 146.736 144.634 146.992 146.17 146.992V148C145.434 147.968 144.362 147.936 142.954 147.904C141.578 147.84 140.138 147.808 138.634 147.808C137.386 147.808 136.138 147.84 134.89 147.904C133.674 147.936 132.762 147.968 132.154 148V146.992C133.338 146.992 134.17 146.752 134.65 146.272C135.162 145.792 135.418 144.88 135.418 143.536V128.416C135.418 126.976 135.178 125.92 134.698 125.248C134.25 124.544 133.402 124.192 132.154 124.192V123.184C133.178 123.28 134.17 123.328 135.13 123.328C136.314 123.328 137.434 123.28 138.49 123.184C139.578 123.056 140.57 122.88 141.466 122.656V127.648C141.85 126.752 142.346 125.92 142.954 125.152C143.594 124.384 144.346 123.76 145.21 123.28C146.106 122.768 147.066 122.512 148.09 122.512ZM177.226 123.184V124.192C176.618 124.32 176.042 124.656 175.498 125.2C174.986 125.744 174.49 126.704 174.01 128.08L166.906 147.568L165.418 149.824L155.53 126.88C154.922 125.664 154.346 124.912 153.802 124.624C153.258 124.336 152.809 124.192 152.457 124.192V123.184C153.386 123.28 154.346 123.36 155.338 123.424C156.362 123.456 157.386 123.472 158.41 123.472C159.594 123.472 160.73 123.44 161.818 123.376C162.938 123.312 163.978 123.248 164.938 123.184V124.192C164.202 124.192 163.546 124.24 162.97 124.336C162.394 124.432 162.01 124.704 161.818 125.152C161.658 125.568 161.786 126.304 162.202 127.36L168.202 142L167.818 142.192L172.042 130.768C172.586 129.264 172.81 128.048 172.714 127.12C172.618 126.192 172.266 125.488 171.658 125.008C171.05 124.528 170.218 124.256 169.162 124.192V123.184C169.674 123.216 170.186 123.248 170.698 123.28C171.21 123.312 171.706 123.344 172.186 123.376C172.666 123.376 173.13 123.376 173.578 123.376C174.25 123.376 174.906 123.36 175.546 123.328C176.218 123.296 176.778 123.248 177.226 123.184ZM166.906 147.568L165.082 152.416C164.794 153.216 164.474 153.888 164.122 154.432C163.802 155.008 163.434 155.472 163.018 155.824C162.538 156.24 161.946 156.544 161.242 156.736C160.57 156.928 159.818 157.024 158.986 157.024C158.25 157.024 157.53 156.896 156.826 156.64C156.154 156.384 155.578 156 155.098 155.488C154.65 154.976 154.426 154.304 154.426 153.472C154.426 152.576 154.73 151.856 155.338 151.312C155.946 150.768 156.778 150.496 157.834 150.496C158.762 150.496 159.514 150.72 160.09 151.168C160.698 151.648 161.002 152.352 161.002 153.28C161.002 153.888 160.826 154.432 160.474 154.912C160.122 155.392 159.626 155.76 158.986 156.016C159.146 156.048 159.29 156.064 159.418 156.064C159.578 156.096 159.706 156.112 159.802 156.112C160.73 156.112 161.562 155.808 162.298 155.2C163.034 154.592 163.626 153.632 164.074 152.32L165.802 147.568H166.906ZM202.503 118.912V130.24H213.639V131.68H202.503V142.96H200.775V131.68H189.591V130.24H200.775V118.912H202.503ZM236.287 110.416V143.536C236.287 144.88 236.511 145.792 236.959 146.272C237.407 146.752 238.175 146.992 239.263 146.992V148C238.719 147.968 237.887 147.936 236.767 147.904C235.647 147.84 234.511 147.808 233.359 147.808C232.175 147.808 230.959 147.84 229.711 147.904C228.495 147.936 227.583 147.968 226.975 148V146.992C228.159 146.992 228.991 146.752 229.471 146.272C229.983 145.792 230.239 144.88 230.239 143.536V116.176C230.239 114.736 229.999 113.68 229.519 113.008C229.071 112.304 228.223 111.952 226.975 111.952V110.944C227.999 111.04 228.991 111.088 229.951 111.088C231.167 111.088 232.303 111.04 233.359 110.944C234.415 110.816 235.391 110.64 236.287 110.416ZM251.839 123.184V124.144C250.879 124.336 249.951 124.704 249.055 125.248C248.159 125.76 247.279 126.48 246.415 127.408L241.663 132.352L242.191 131.296L250.639 144.496C251.087 145.136 251.503 145.68 251.887 146.128C252.303 146.544 252.815 146.832 253.423 146.992V148C253.007 147.968 252.351 147.936 251.455 147.904C250.559 147.84 249.663 147.808 248.767 147.808C247.679 147.808 246.559 147.84 245.407 147.904C244.287 147.936 243.439 147.968 242.863 148V146.992C243.503 146.992 243.935 146.848 244.159 146.56C244.415 146.24 244.383 145.84 244.063 145.36L239.071 136.96C238.623 136.256 238.191 135.808 237.775 135.616C237.359 135.392 236.799 135.28 236.095 135.28V134.32C236.895 134.256 237.551 134.112 238.062 133.888C238.607 133.664 239.119 133.312 239.599 132.832L243.199 129.232C244.255 128.176 244.783 127.28 244.783 126.544C244.815 125.808 244.479 125.248 243.775 124.864C243.103 124.448 242.223 124.208 241.135 124.144V123.184C241.999 123.216 242.959 123.264 244.015 123.328C245.071 123.36 245.967 123.376 246.703 123.376C247.279 123.376 247.887 123.376 248.527 123.376C249.199 123.344 249.823 123.312 250.399 123.28C251.007 123.248 251.487 123.216 251.839 123.184ZM260.825 110.944C261.977 110.944 262.921 111.264 263.657 111.904C264.393 112.544 264.761 113.392 264.761 114.448C264.761 115.504 264.393 116.352 263.657 116.992C262.921 117.632 261.977 117.952 260.825 117.952C259.673 117.952 258.729 117.632 257.993 116.992C257.257 116.352 256.889 115.504 256.889 114.448C256.889 113.392 257.257 112.544 257.993 111.904C258.729 111.264 259.673 110.944 260.825 110.944ZM264.185 122.656V143.536C264.185 144.88 264.425 145.792 264.905 146.272C265.417 146.752 266.265 146.992 267.449 146.992V148C266.873 147.968 265.993 147.936 264.809 147.904C263.625 147.84 262.425 147.808 261.209 147.808C260.025 147.808 258.825 147.84 257.609 147.904C256.393 147.936 255.481 147.968 254.873 148V146.992C256.057 146.992 256.889 146.752 257.369 146.272C257.881 145.792 258.137 144.88 258.137 143.536V128.464C258.137 126.992 257.897 125.92 257.417 125.248C256.969 124.544 256.121 124.192 254.873 124.192V123.184C255.897 123.28 256.889 123.328 257.849 123.328C259.033 123.328 260.153 123.28 261.209 123.184C262.297 123.056 263.289 122.88 264.185 122.656ZM278.711 115.312V123.232H284.855V124.192H278.711V143.296C278.711 144.448 278.919 145.264 279.335 145.744C279.751 146.224 280.343 146.464 281.111 146.464C281.847 146.464 282.519 146.192 283.127 145.648C283.735 145.072 284.279 144.128 284.759 142.816L285.623 143.2C285.143 144.768 284.391 146.08 283.367 147.136C282.375 148.16 280.967 148.672 279.143 148.672C278.055 148.672 277.127 148.528 276.359 148.24C275.623 147.984 274.983 147.6 274.439 147.088C273.735 146.352 273.255 145.472 272.999 144.448C272.775 143.424 272.663 142.064 272.663 140.368V124.192H268.439V123.232H272.663V116.56C273.815 116.528 274.887 116.416 275.879 116.224C276.871 116.032 277.815 115.728 278.711 115.312ZM298.708 122.512C299.892 122.512 300.98 122.656 301.972 122.944C302.996 123.2 303.876 123.568 304.612 124.048C305.38 124.528 305.988 125.136 306.436 125.872C306.884 126.576 307.108 127.36 307.108 128.224C307.108 129.28 306.788 130.128 306.148 130.768C305.508 131.408 304.708 131.728 303.748 131.728C302.756 131.728 301.94 131.44 301.3 130.864C300.692 130.288 300.388 129.52 300.388 128.56C300.388 127.632 300.66 126.864 301.204 126.256C301.748 125.648 302.404 125.248 303.172 125.056C302.884 124.64 302.436 124.304 301.828 124.048C301.22 123.76 300.548 123.616 299.812 123.616C298.852 123.616 297.988 123.872 297.22 124.384C296.452 124.864 295.78 125.6 295.204 126.592C294.66 127.552 294.228 128.752 293.908 130.192C293.62 131.6 293.476 133.232 293.476 135.088C293.476 137.68 293.78 139.728 294.388 141.232C295.028 142.736 295.844 143.808 296.836 144.448C297.828 145.056 298.884 145.36 300.004 145.36C300.676 145.36 301.396 145.232 302.164 144.976C302.932 144.72 303.684 144.288 304.42 143.68C305.188 143.072 305.876 142.208 306.484 141.088L307.396 141.424C307.044 142.544 306.468 143.664 305.668 144.784C304.9 145.904 303.892 146.832 302.644 147.568C301.396 148.304 299.876 148.672 298.084 148.672C296.036 148.672 294.18 148.208 292.516 147.28C290.852 146.32 289.524 144.88 288.532 142.96C287.572 141.04 287.092 138.656 287.092 135.808C287.092 132.992 287.588 130.608 288.58 128.656C289.572 126.672 290.948 125.152 292.708 124.096C294.5 123.04 296.5 122.512 298.708 122.512ZM319.068 110.416V127.408C319.868 125.616 320.972 124.352 322.38 123.616C323.82 122.88 325.372 122.512 327.036 122.512C328.348 122.512 329.42 122.688 330.252 123.04C331.084 123.392 331.756 123.84 332.268 124.384C332.812 124.992 333.196 125.776 333.42 126.736C333.676 127.696 333.804 128.992 333.804 130.624V143.536C333.804 144.88 334.044 145.792 334.524 146.272C335.036 146.752 335.884 146.992 337.068 146.992V148C336.492 147.968 335.612 147.936 334.428 147.904C333.244 147.84 332.076 147.808 330.924 147.808C329.772 147.808 328.636 147.84 327.516 147.904C326.396 147.936 325.548 147.968 324.972 148V146.992C325.996 146.992 326.716 146.752 327.132 146.272C327.548 145.792 327.756 144.88 327.756 143.536V128.992C327.756 128.128 327.676 127.36 327.516 126.688C327.356 125.984 327.036 125.44 326.556 125.056C326.108 124.64 325.42 124.432 324.492 124.432C323.468 124.432 322.54 124.72 321.708 125.296C320.908 125.84 320.268 126.624 319.788 127.648C319.308 128.64 319.068 129.776 319.068 131.056V143.536C319.068 144.88 319.276 145.792 319.692 146.272C320.14 146.752 320.86 146.992 321.852 146.992V148C321.308 147.968 320.492 147.936 319.404 147.904C318.348 147.84 317.244 147.808 316.092 147.808C314.94 147.808 313.74 147.84 312.492 147.904C311.276 147.936 310.364 147.968 309.756 148V146.992C310.94 146.992 311.772 146.752 312.252 146.272C312.764 145.792 313.02 144.88 313.02 143.536V116.176C313.02 114.736 312.78 113.68 312.3 113.008C311.852 112.304 311.004 111.952 309.756 111.952V110.944C310.78 111.04 311.772 111.088 312.732 111.088C313.948 111.088 315.084 111.04 316.14 110.944C317.196 110.816 318.172 110.64 319.068 110.416ZM351.063 122.512C353.879 122.512 356.087 123.36 357.687 125.056C359.287 126.752 360.087 129.456 360.087 133.168H343.911L343.863 132.256H354.519C354.583 130.688 354.487 129.248 354.231 127.936C353.975 126.592 353.559 125.52 352.983 124.72C352.439 123.92 351.719 123.52 350.823 123.52C349.607 123.52 348.551 124.24 347.655 125.68C346.759 127.088 346.199 129.408 345.975 132.64L346.167 132.928C346.103 133.344 346.055 133.792 346.023 134.272C346.023 134.752 346.023 135.232 346.023 135.712C346.023 137.92 346.343 139.744 346.983 141.184C347.623 142.624 348.455 143.68 349.479 144.352C350.503 145.024 351.559 145.36 352.647 145.36C353.383 145.36 354.135 145.248 354.903 145.024C355.671 144.8 356.423 144.384 357.159 143.776C357.895 143.168 358.567 142.304 359.175 141.184L360.087 141.568C359.735 142.688 359.143 143.808 358.311 144.928C357.511 146.016 356.471 146.912 355.191 147.616C353.911 148.32 352.407 148.672 350.679 148.672C348.503 148.672 346.583 148.192 344.919 147.232C343.255 146.272 341.959 144.848 341.031 142.96C340.103 141.04 339.639 138.704 339.639 135.952C339.639 133.04 340.119 130.592 341.079 128.608C342.071 126.624 343.431 125.12 345.159 124.096C346.887 123.04 348.855 122.512 351.063 122.512ZM380.246 122.512C381.59 122.512 382.662 122.688 383.462 123.04C384.294 123.392 384.966 123.84 385.478 124.384C386.054 124.992 386.454 125.776 386.678 126.736C386.934 127.696 387.062 128.992 387.062 130.624V143.536C387.062 144.88 387.302 145.792 387.782 146.272C388.294 146.752 389.142 146.992 390.326 146.992V148C389.75 147.968 388.854 147.936 387.638 147.904C386.454 147.84 385.302 147.808 384.182 147.808C382.998 147.808 381.846 147.84 380.726 147.904C379.606 147.936 378.774 147.968 378.23 148V146.992C379.254 146.992 379.974 146.752 380.39 146.272C380.806 145.792 381.014 144.88 381.014 143.536V128.992C381.014 128.128 380.934 127.36 380.774 126.688C380.614 125.984 380.294 125.44 379.814 125.056C379.334 124.64 378.646 124.432 377.75 124.432C376.694 124.432 375.75 124.72 374.918 125.296C374.118 125.872 373.478 126.672 372.998 127.696C372.55 128.688 372.326 129.808 372.326 131.056V143.536C372.326 144.88 372.534 145.792 372.95 146.272C373.366 146.752 374.086 146.992 375.11 146.992V148C374.566 147.968 373.75 147.936 372.662 147.904C371.574 147.84 370.47 147.808 369.35 147.808C368.166 147.808 366.966 147.84 365.75 147.904C364.534 147.936 363.622 147.968 363.014 148V146.992C364.198 146.992 365.03 146.752 365.51 146.272C366.022 145.792 366.278 144.88 366.278 143.536V128.416C366.278 126.976 366.038 125.92 365.558 125.248C365.11 124.544 364.262 124.192 363.014 124.192V123.184C364.038 123.28 365.03 123.328 365.99 123.328C367.174 123.328 368.294 123.28 369.35 123.184C370.438 123.056 371.43 122.88 372.326 122.656V127.456C373.126 125.632 374.23 124.352 375.638 123.616C377.046 122.88 378.582 122.512 380.246 122.512Z" fill="black" fill-opacity="0.75" shape-rendering="crispEdges"/>
</g>
<defs>
<filter id="filter0_d_2_28" x="0.800049" y="26.016" width="415.217" height="60.992" filterUnits="userSpaceOnUse" color-interpolation-filters="sRGB">
<feFlood flood-opacity="0" result="BackgroundImageFix"/>
<feColorMatrix in="SourceAlpha" type="matrix" values="0 0 0 0 0 0 0 0 0 0 0 0 0 0 0 0 0 0 127 0" result="hardAlpha"/>
<feOffset dy="4"/>
<feGaussianBlur stdDeviation="2"/>
<feComposite in2="hardAlpha" operator="out"/>
<feColorMatrix type="matrix" values="0 0 0 0 0 0 0 0 0 0 0 0 0 0 0 0 0 0 0.25 0"/>
<feBlend mode="normal" in2="BackgroundImageFix" result="effect1_dropShadow_2_28"/>
<feBlend mode="normal" in="SourceGraphic" in2="effect1_dropShadow_2_28" result="shape"/>
</filter>
<filter id="filter1_d_2_28" x="20.848" y="110.416" width="373.478" height="54.608" filterUnits="userSpaceOnUse" color-interpolation-filters="sRGB">
<feFlood flood-opacity="0" result="BackgroundImageFix"/>
<feColorMatrix in="SourceAlpha" type="matrix" values="0 0 0 0 0 0 0 0 0 0 0 0 0 0 0 0 0 0 127 0" result="hardAlpha"/>
<feOffset dy="4"/>
<feGaussianBlur stdDeviation="2"/>
<feComposite in2="hardAlpha" operator="out"/>
<feColorMatrix type="matrix" values="0 0 0 0 0 0 0 0 0 0 0 0 0 0 0 0 0 0 0.25 0"/>
<feBlend mode="normal" in2="BackgroundImageFix" result="effect1_dropShadow_2_28"/>
<feBlend mode="normal" in="SourceGraphic" in2="effect1_dropShadow_2_28" result="shape"/>
</filter>
</defs>
</svg>
