<svg width="417" height="174" viewBox="0 0 417 174" fill="none" xmlns="http://www.w3.org/2000/svg">
<g filter="url(#filter0_d_2_7)">
<path d="M49.224 27.024C49.032 29.472 48.888 31.824 48.792 34.08C48.744 36.336 48.72 38.064 48.72 39.264C48.72 40.32 48.744 41.328 48.792 42.288C48.84 43.248 48.888 44.064 48.936 44.736H47.28C46.512 40.704 45.528 37.512 44.328 35.16C43.176 32.808 41.784 31.152 40.152 30.192C38.52 29.184 36.6 28.68 34.392 28.68H32.736V69.792C32.736 71.712 32.928 73.152 33.312 74.112C33.744 75.072 34.512 75.72 35.616 76.056C36.72 76.344 38.328 76.512 40.44 76.56V78C38.952 77.952 36.96 77.904 34.464 77.856C32.016 77.808 29.448 77.784 26.76 77.784C24.12 77.784 21.624 77.808 19.272 77.856C16.92 77.904 15.024 77.952 13.584 78V76.56C15.744 76.512 17.376 76.344 18.48 76.056C19.584 75.72 20.328 75.072 20.712 74.112C21.096 73.152 21.288 71.712 21.288 69.792V28.68H19.704C17.496 28.68 15.576 29.184 13.944 30.192C12.312 31.152 10.92 32.808 9.768 35.16C8.616 37.464 7.608 40.656 6.744 44.736H5.088C5.184 44.064 5.232 43.248 5.232 42.288C5.28 41.328 5.304 40.32 5.304 39.264C5.304 38.064 5.256 36.336 5.16 34.08C5.112 31.824 4.992 29.472 4.8 27.024C7.008 27.072 9.408 27.12 12 27.168C14.64 27.216 17.28 27.24 19.92 27.24C22.56 27.24 24.936 27.24 27.048 27.24C29.208 27.24 31.584 27.24 34.176 27.24C36.816 27.24 39.456 27.216 42.096 27.168C44.736 27.12 47.112 27.072 49.224 27.024ZM84.0698 78V76.56C85.6058 76.464 86.7578 76.272 87.5258 75.984C88.2938 75.696 88.7978 75.12 89.0378 74.256C89.3258 73.392 89.4698 72.096 89.4698 70.368V34.656C89.4698 32.88 89.3258 31.584 89.0378 30.768C88.7978 29.904 88.2698 29.328 87.4537 29.04C86.6858 28.704 85.5578 28.512 84.0698 28.464V27.024C85.3658 27.072 87.0458 27.12 89.1097 27.168C91.2218 27.216 93.3098 27.24 95.3738 27.24C97.5818 27.24 99.6458 27.216 101.566 27.168C103.534 27.12 105.118 27.072 106.318 27.024V28.464C104.782 28.512 103.606 28.704 102.79 29.04C102.022 29.328 101.518 29.904 101.278 30.768C101.038 31.584 100.918 32.88 100.918 34.656V70.368C100.918 72.096 101.038 73.392 101.278 74.256C101.566 75.12 102.094 75.696 102.862 75.984C103.63 76.272 104.782 76.464 106.318 76.56V78C105.118 77.904 103.534 77.856 101.566 77.856C99.6458 77.808 97.5818 77.784 95.3738 77.784C93.3098 77.784 91.2218 77.808 89.1097 77.856C87.0458 77.856 85.3658 77.904 84.0698 78ZM53.5418 78V76.56C55.0778 76.464 56.2298 76.272 56.9978 75.984C57.7658 75.696 58.2698 75.12 58.5098 74.256C58.7978 73.392 58.9418 72.096 58.9418 70.368V34.656C58.9418 32.88 58.7978 31.584 58.5098 30.768C58.2698 29.904 57.7418 29.328 56.9258 29.04C56.1578 28.704 55.0298 28.512 53.5418 28.464V27.024C54.7898 27.072 56.3978 27.12 58.3658 27.168C60.3818 27.216 62.5658 27.24 64.9178 27.24C66.9338 27.24 68.9258 27.216 70.8938 27.168C72.8618 27.12 74.4938 27.072 75.7898 27.024V28.464C74.2538 28.512 73.0778 28.704 72.2617 29.04C71.4938 29.328 70.9898 29.904 70.7498 30.768C70.5098 31.584 70.3898 32.88 70.3898 34.656V70.368C70.3898 72.096 70.5098 73.392 70.7498 74.256C71.0378 75.12 71.5658 75.696 72.3338 75.984C73.1018 76.272 74.2538 76.464 75.7898 76.56V78C74.4938 77.904 72.8618 77.856 70.8938 77.856C68.9258 77.808 66.9338 77.784 64.9178 77.784C62.5658 77.784 60.3818 77.808 58.3658 77.856C56.3978 77.856 54.7898 77.904 53.5418 78ZM65.7098 53.088V51.648H94.1498V53.088H65.7098ZM149.648 27.024C149.456 29.136 149.312 31.176 149.216 33.144C149.168 35.112 149.144 36.624 149.144 37.68C149.144 38.64 149.168 39.552 149.216 40.416C149.264 41.28 149.312 42 149.36 42.576H147.704C147.224 39.072 146.48 36.312 145.472 34.296C144.464 32.232 143.144 30.792 141.512 29.976C139.928 29.112 138.056 28.68 135.896 28.68H132.944C131.552 28.68 130.496 28.8 129.776 29.04C129.056 29.28 128.576 29.76 128.336 30.48C128.096 31.2 127.976 32.304 127.976 33.792V71.232C127.976 72.72 128.096 73.824 128.336 74.544C128.576 75.264 129.056 75.744 129.776 75.984C130.496 76.224 131.552 76.344 132.944 76.344H136.472C138.632 76.344 140.528 75.888 142.16 74.976C143.84 74.016 145.256 72.408 146.408 70.152C147.608 67.896 148.52 64.848 149.144 61.008H150.8C150.656 62.544 150.584 64.56 150.584 67.056C150.584 68.16 150.608 69.72 150.656 71.736C150.704 73.752 150.848 75.84 151.088 78C148.64 77.904 145.88 77.856 142.808 77.856C139.736 77.808 137 77.784 134.6 77.784C133.4 77.784 131.864 77.784 129.992 77.784C128.12 77.784 126.104 77.808 123.944 77.856C121.784 77.856 119.6 77.88 117.392 77.928C115.184 77.928 113.096 77.952 111.128 78V76.56C112.664 76.464 113.816 76.272 114.584 75.984C115.352 75.696 115.856 75.12 116.096 74.256C116.384 73.392 116.528 72.096 116.528 70.368V34.656C116.528 32.88 116.384 31.584 116.096 30.768C115.856 29.904 115.328 29.328 114.512 29.04C113.744 28.704 112.616 28.512 111.128 28.464V27.024C113.096 27.072 115.184 27.12 117.392 27.168C119.6 27.168 121.784 27.192 123.944 27.24C126.104 27.24 128.12 27.24 129.992 27.24C131.864 27.24 133.4 27.24 134.6 27.24C136.808 27.24 139.304 27.24 142.088 27.24C144.92 27.192 147.44 27.12 149.648 27.024ZM138.416 51.648C138.416 51.648 138.416 51.888 138.416 52.368C138.416 52.848 138.416 53.088 138.416 53.088H125.816C125.816 53.088 125.816 52.848 125.816 52.368C125.816 51.888 125.816 51.648 125.816 51.648H138.416ZM140.504 42.144C140.312 44.88 140.216 46.968 140.216 48.408C140.264 49.848 140.288 51.168 140.288 52.368C140.288 53.568 140.312 54.888 140.36 56.328C140.408 57.768 140.528 59.856 140.72 62.592H139.064C138.824 60.912 138.368 59.352 137.696 57.912C137.072 56.472 136.16 55.32 134.96 54.456C133.76 53.544 132.2 53.088 130.28 53.088V51.648C131.72 51.648 132.944 51.36 133.952 50.784C134.96 50.16 135.776 49.368 136.4 48.408C137.072 47.4 137.6 46.344 137.984 45.24C138.368 44.136 138.656 43.104 138.848 42.144H140.504ZM196.245 27.024V28.464C194.613 28.512 193.365 28.704 192.501 29.04C191.685 29.328 191.133 29.904 190.845 30.768C190.557 31.584 190.413 32.88 190.413 34.656V71.232C190.413 72.72 190.509 73.824 190.701 74.544C190.941 75.264 191.373 75.744 191.997 75.984C192.669 76.224 193.653 76.344 194.949 76.344H198.477C200.109 76.344 201.645 75.96 203.085 75.192C204.525 74.424 205.821 73.344 206.973 71.952C208.125 70.512 209.085 68.808 209.853 66.84C210.621 64.872 211.197 62.688 211.581 60.288H213.237C213.093 61.92 213.021 64.032 213.021 66.624C213.021 67.728 213.045 69.336 213.093 71.448C213.141 73.56 213.285 75.744 213.525 78C211.077 77.904 208.317 77.856 205.245 77.856C202.173 77.808 199.437 77.784 197.037 77.784C195.837 77.784 194.301 77.784 192.429 77.784C190.557 77.784 188.541 77.808 186.381 77.856C184.221 77.856 182.037 77.88 179.829 77.928C177.621 77.928 175.533 77.952 173.565 78V76.56C175.101 76.464 176.253 76.272 177.021 75.984C177.789 75.696 178.293 75.12 178.533 74.256C178.821 73.392 178.965 72.096 178.965 70.368V34.656C178.965 32.88 178.821 31.584 178.533 30.768C178.293 29.904 177.765 29.328 176.949 29.04C176.181 28.704 175.053 28.512 173.565 28.464V27.024C174.765 27.072 176.373 27.12 178.389 27.168C180.453 27.216 182.637 27.24 184.941 27.24C187.053 27.24 189.117 27.216 191.133 27.168C193.197 27.12 194.901 27.072 196.245 27.024ZM243.717 26.016C248.805 26.016 253.245 27.048 257.037 29.112C260.877 31.176 263.853 34.152 265.965 38.04C268.077 41.88 269.133 46.56 269.133 52.08C269.133 57.456 268.053 62.16 265.893 66.192C263.733 70.224 260.709 73.368 256.821 75.624C252.981 77.88 248.589 79.008 243.645 79.008C238.557 79.008 234.093 77.976 230.253 75.912C226.461 73.848 223.509 70.872 221.397 66.984C219.285 63.096 218.229 58.416 218.229 52.944C218.229 47.568 219.309 42.864 221.469 38.832C223.677 34.8 226.677 31.656 230.469 29.4C234.309 27.144 238.725 26.016 243.717 26.016ZM243.429 27.312C240.741 27.312 238.389 28.392 236.373 30.552C234.405 32.712 232.869 35.688 231.765 39.48C230.709 43.272 230.181 47.664 230.181 52.656C230.181 57.744 230.781 62.184 231.981 65.976C233.229 69.72 234.885 72.624 236.949 74.688C239.061 76.704 241.389 77.712 243.933 77.712C246.621 77.712 248.949 76.632 250.917 74.472C252.933 72.312 254.469 69.336 255.525 65.544C256.629 61.704 257.181 57.312 257.181 52.368C257.181 47.232 256.557 42.792 255.309 39.048C254.109 35.304 252.453 32.424 250.341 30.408C248.277 28.344 245.973 27.312 243.429 27.312ZM300.811 26.016C303.979 26.016 306.571 26.496 308.587 27.456C310.651 28.368 312.475 29.448 314.059 30.696C315.019 31.416 315.739 31.512 316.219 30.984C316.747 30.408 317.107 29.088 317.299 27.024H318.955C318.859 28.896 318.787 31.176 318.739 33.864C318.691 36.504 318.667 40.032 318.667 44.448H317.011C316.771 42.24 316.459 40.368 316.075 38.832C315.691 37.248 315.163 35.856 314.491 34.656C313.819 33.456 312.859 32.376 311.611 31.416C310.411 30.216 309.019 29.328 307.435 28.752C305.851 28.176 304.195 27.888 302.467 27.888C299.875 27.888 297.667 28.584 295.843 29.976C294.019 31.32 292.531 33.168 291.379 35.52C290.275 37.872 289.459 40.536 288.931 43.512C288.403 46.44 288.139 49.488 288.139 52.656C288.139 55.872 288.403 58.968 288.931 61.944C289.507 64.872 290.371 67.488 291.523 69.792C292.723 72.096 294.259 73.92 296.131 75.264C298.003 76.608 300.211 77.28 302.755 77.28C304.339 77.28 305.923 76.992 307.507 76.416C309.139 75.792 310.531 74.904 311.683 73.752C313.555 72.312 314.827 70.536 315.499 68.424C316.171 66.264 316.675 63.408 317.011 59.856H318.667C318.667 64.416 318.691 68.112 318.739 70.944C318.787 73.728 318.859 76.08 318.955 78H317.299C317.107 75.936 316.771 74.64 316.291 74.112C315.859 73.584 315.115 73.656 314.059 74.328C312.283 75.576 310.387 76.68 308.371 77.64C306.403 78.552 303.859 79.008 300.739 79.008C295.651 79.008 291.187 77.976 287.347 75.912C283.555 73.848 280.603 70.872 278.491 66.984C276.379 63.096 275.323 58.416 275.323 52.944C275.323 47.568 276.403 42.864 278.563 38.832C280.771 34.8 283.771 31.656 287.563 29.4C291.403 27.144 295.819 26.016 300.811 26.016ZM349.488 26.88L366.984 71.952C367.656 73.68 368.4 74.88 369.216 75.552C370.08 76.176 370.848 76.512 371.52 76.56V78C370.08 77.904 368.376 77.856 366.408 77.856C364.488 77.808 362.544 77.784 360.576 77.784C358.368 77.784 356.28 77.808 354.312 77.856C352.344 77.856 350.784 77.904 349.632 78V76.56C352.08 76.464 353.616 76.056 354.24 75.336C354.912 74.568 354.768 72.96 353.808 70.512L341.568 37.032L342.864 35.16L331.92 63.672C330.864 66.312 330.216 68.472 329.976 70.152C329.784 71.832 329.904 73.128 330.336 74.04C330.816 74.952 331.56 75.6 332.568 75.984C333.624 76.32 334.872 76.512 336.312 76.56V78C334.728 77.904 333.216 77.856 331.776 77.856C330.336 77.808 328.872 77.784 327.384 77.784C326.328 77.784 325.32 77.808 324.36 77.856C323.448 77.856 322.632 77.904 321.912 78V76.56C322.92 76.368 323.952 75.72 325.008 74.616C326.064 73.512 327.096 71.64 328.104 69L344.52 26.88C345.288 26.928 346.104 26.952 346.968 26.952C347.88 26.952 348.72 26.928 349.488 26.88ZM354.528 57.264V58.704H333.072L333.792 57.264H354.528ZM394.737 27.024V28.464C393.105 28.512 391.857 28.704 390.993 29.04C390.177 29.328 389.625 29.904 389.337 30.768C389.049 31.584 388.905 32.88 388.905 34.656V71.232C388.905 72.72 389.001 73.824 389.193 74.544C389.433 75.264 389.865 75.744 390.489 75.984C391.161 76.224 392.145 76.344 393.441 76.344H396.969C398.601 76.344 400.137 75.96 401.577 75.192C403.017 74.424 404.313 73.344 405.465 71.952C406.617 70.512 407.577 68.808 408.345 66.84C409.113 64.872 409.689 62.688 410.073 60.288H411.729C411.585 61.92 411.513 64.032 411.513 66.624C411.513 67.728 411.537 69.336 411.585 71.448C411.633 73.56 411.777 75.744 412.017 78C409.569 77.904 406.809 77.856 403.737 77.856C400.665 77.808 397.929 77.784 395.529 77.784C394.329 77.784 392.793 77.784 390.921 77.784C389.049 77.784 387.033 77.808 384.873 77.856C382.713 77.856 380.529 77.88 378.321 77.928C376.113 77.928 374.025 77.952 372.057 78V76.56C373.593 76.464 374.745 76.272 375.513 75.984C376.281 75.696 376.785 75.12 377.025 74.256C377.313 73.392 377.457 72.096 377.457 70.368V34.656C377.457 32.88 377.313 31.584 377.025 30.768C376.785 29.904 376.257 29.328 375.441 29.04C374.673 28.704 373.545 28.512 372.057 28.464V27.024C373.257 27.072 374.865 27.12 376.881 27.168C378.945 27.216 381.129 27.24 383.433 27.24C385.545 27.24 387.609 27.216 389.625 27.168C391.689 27.12 393.393 27.072 394.737 27.024Z" fill="white"/>
</g>
<g filter="url(#filter1_d_2_7)">
<path d="M23.396 165.024V164.16C24.964 164.128 26.212 163.504 27.14 162.288C28.068 161.104 28.532 159.296 28.532 156.864V136.416C28.532 134.976 28.308 133.92 27.86 133.248C27.412 132.544 26.612 132.192 25.46 132.192V131.184C26.484 131.28 27.476 131.328 28.436 131.328C29.748 131.328 30.996 131.28 32.18 131.184C33.364 131.056 34.452 130.88 35.444 130.656V151.488C35.444 153.248 35.332 154.8 35.108 156.144C34.884 157.488 34.516 158.672 34.004 159.696C33.492 160.72 32.82 161.632 31.988 162.432C31.188 163.2 30.084 163.824 28.676 164.304C27.3 164.784 25.54 165.024 23.396 165.024ZM31.46 118.8C32.804 118.8 33.86 119.136 34.628 119.808C35.428 120.448 35.828 121.344 35.828 122.496C35.828 123.648 35.428 124.56 34.628 125.232C33.86 125.872 32.804 126.192 31.46 126.192C30.116 126.192 29.044 125.872 28.244 125.232C27.476 124.56 27.092 123.648 27.092 122.496C27.092 121.344 27.476 120.448 28.244 119.808C29.044 119.136 30.116 118.8 31.46 118.8ZM63.806 130.656V150.768C63.806 152.208 64.03 153.28 64.478 153.984C64.926 154.656 65.726 154.992 66.878 154.992V156C65.886 155.904 64.894 155.856 63.902 155.856C62.558 155.856 61.31 155.904 60.158 156C59.006 156.096 57.918 156.272 56.894 156.528V152.208C56.126 153.808 55.054 154.96 53.678 155.664C52.334 156.336 50.83 156.672 49.166 156.672C47.822 156.672 46.734 156.496 45.902 156.144C45.07 155.792 44.414 155.344 43.934 154.8C43.39 154.192 43.006 153.392 42.782 152.4C42.558 151.408 42.446 150.128 42.446 148.56V136.416C42.446 134.976 42.222 133.92 41.774 133.248C41.358 132.544 40.558 132.192 39.374 132.192V131.184C40.398 131.28 41.39 131.328 42.35 131.328C43.694 131.328 44.942 131.28 46.094 131.184C47.278 131.056 48.366 130.88 49.358 130.656V150.528C49.358 151.328 49.422 152.032 49.55 152.64C49.71 153.248 49.998 153.728 50.414 154.08C50.83 154.4 51.438 154.56 52.238 154.56C53.102 154.56 53.87 154.32 54.542 153.84C55.246 153.36 55.806 152.704 56.222 151.872C56.67 151.008 56.894 150.048 56.894 148.992V136.416C56.894 134.976 56.67 133.92 56.222 133.248C55.806 132.544 55.006 132.192 53.822 132.192V131.184C54.846 131.28 55.838 131.328 56.798 131.328C58.142 131.328 59.39 131.28 60.542 131.184C61.726 131.056 62.814 130.88 63.806 130.656ZM75.2514 118.8C76.5954 118.8 77.6514 119.136 78.4194 119.808C79.2194 120.448 79.6194 121.344 79.6194 122.496C79.6194 123.648 79.2194 124.56 78.4194 125.232C77.6514 125.872 76.5954 126.192 75.2514 126.192C73.9074 126.192 72.8354 125.872 72.0354 125.232C71.2674 124.56 70.8834 123.648 70.8834 122.496C70.8834 121.344 71.2674 120.448 72.0354 119.808C72.8354 119.136 73.9074 118.8 75.2514 118.8ZM78.9954 130.656V151.536C78.9954 152.88 79.2194 153.792 79.6674 154.272C80.1474 154.752 80.9474 154.992 82.0674 154.992V156C81.4914 155.968 80.5954 155.936 79.3794 155.904C78.1634 155.84 76.9314 155.808 75.6834 155.808C74.4354 155.808 73.1714 155.84 71.8914 155.904C70.6114 155.936 69.6514 155.968 69.0114 156V154.992C70.1314 154.992 70.9154 154.752 71.3634 154.272C71.8434 153.792 72.0834 152.88 72.0834 151.536V136.416C72.0834 134.976 71.8594 133.92 71.4114 133.248C70.9954 132.544 70.1954 132.192 69.0114 132.192V131.184C70.0354 131.28 71.0274 131.328 71.9874 131.328C73.3314 131.328 74.5794 131.28 75.7314 131.184C76.9154 131.056 78.0034 130.88 78.9954 130.656ZM96.632 130.512C97.88 130.512 99.016 130.656 100.04 130.944C101.096 131.2 101.96 131.536 102.632 131.952C103.464 132.464 104.104 133.104 104.552 133.872C105.032 134.608 105.272 135.472 105.272 136.464C105.272 137.584 104.92 138.512 104.216 139.248C103.512 139.952 102.6 140.304 101.48 140.304C100.36 140.304 99.464 139.984 98.792 139.344C98.12 138.704 97.784 137.84 97.784 136.752C97.784 135.728 98.104 134.88 98.744 134.208C99.384 133.504 100.12 133.04 100.952 132.816C100.696 132.496 100.312 132.224 99.8 132C99.288 131.776 98.712 131.664 98.072 131.664C97.08 131.664 96.2 131.952 95.432 132.528C94.696 133.104 94.072 133.904 93.56 134.928C93.048 135.952 92.648 137.152 92.36 138.528C92.104 139.904 91.976 141.408 91.976 143.04C91.976 145.504 92.28 147.44 92.888 148.848C93.528 150.256 94.328 151.248 95.288 151.824C96.28 152.4 97.304 152.688 98.36 152.688C98.968 152.688 99.624 152.592 100.328 152.4C101.064 152.208 101.8 151.824 102.536 151.248C103.304 150.672 104.008 149.856 104.648 148.8L105.464 149.088C105.112 150.272 104.536 151.456 103.736 152.64C102.936 153.824 101.896 154.8 100.616 155.568C99.336 156.304 97.768 156.672 95.912 156.672C93.832 156.672 91.944 156.224 90.248 155.328C88.584 154.4 87.24 152.992 86.216 151.104C85.224 149.184 84.728 146.72 84.728 143.712C84.728 140.832 85.24 138.416 86.264 136.464C87.32 134.48 88.744 132.992 90.536 132C92.328 131.008 94.36 130.512 96.632 130.512ZM120.349 130.512C123.165 130.512 125.373 131.344 126.973 133.008C128.573 134.672 129.373 137.392 129.373 141.168H113.581L113.485 140.256H123.325C123.357 138.688 123.261 137.248 123.037 135.936C122.813 134.592 122.461 133.52 121.981 132.72C121.501 131.92 120.861 131.52 120.061 131.52C118.941 131.52 117.981 132.224 117.181 133.632C116.413 135.04 115.949 137.376 115.789 140.64L115.933 140.928C115.901 141.312 115.869 141.712 115.837 142.128C115.837 142.544 115.837 142.976 115.837 143.424C115.837 145.632 116.141 147.424 116.749 148.8C117.389 150.176 118.189 151.184 119.148 151.824C120.109 152.432 121.085 152.736 122.077 152.736C122.749 152.736 123.437 152.64 124.141 152.448C124.877 152.224 125.613 151.84 126.349 151.296C127.085 150.72 127.773 149.92 128.413 148.896L129.277 149.184C128.893 150.4 128.285 151.584 127.453 152.736C126.621 153.888 125.565 154.832 124.285 155.568C123.005 156.304 121.469 156.672 119.677 156.672C117.501 156.672 115.581 156.208 113.917 155.28C112.253 154.352 110.941 152.944 109.98 151.056C109.053 149.168 108.589 146.768 108.589 143.856C108.589 140.88 109.085 138.4 110.077 136.416C111.101 134.432 112.493 132.96 114.253 132C116.045 131.008 118.077 130.512 120.349 130.512ZM148.383 130.512C149.407 130.512 150.239 130.736 150.879 131.184C151.519 131.6 151.983 132.144 152.271 132.816C152.591 133.488 152.751 134.192 152.751 134.928C152.751 136.112 152.399 137.088 151.695 137.856C151.023 138.592 150.127 138.96 149.007 138.96C147.887 138.96 147.007 138.688 146.367 138.144C145.759 137.568 145.455 136.816 145.455 135.888C145.455 134.992 145.647 134.256 146.031 133.68C146.447 133.072 146.959 132.56 147.567 132.144C147.119 132.016 146.671 132.032 146.223 132.192C145.615 132.288 145.039 132.544 144.495 132.96C143.951 133.344 143.487 133.84 143.103 134.448C142.719 135.024 142.415 135.664 142.191 136.368C141.967 137.04 141.855 137.696 141.855 138.336V151.056C141.855 152.592 142.223 153.632 142.959 154.176C143.727 154.72 144.863 154.992 146.367 154.992V156C145.631 155.968 144.559 155.936 143.151 155.904C141.743 155.84 140.271 155.808 138.735 155.808C137.455 155.808 136.159 155.84 134.847 155.904C133.535 155.936 132.543 155.968 131.871 156V154.992C132.991 154.992 133.775 154.752 134.223 154.272C134.703 153.792 134.943 152.88 134.943 151.536V136.416C134.943 134.976 134.719 133.92 134.271 133.248C133.855 132.544 133.055 132.192 131.871 132.192V131.184C132.895 131.28 133.887 131.328 134.847 131.328C136.191 131.328 137.439 131.28 138.591 131.184C139.775 131.056 140.863 130.88 141.855 130.656V135.12C142.239 134.256 142.751 133.472 143.391 132.768C144.031 132.064 144.767 131.52 145.599 131.136C146.431 130.72 147.359 130.512 148.383 130.512ZM177.749 131.184V132.144C177.141 132.304 176.565 132.688 176.021 133.296C175.477 133.872 174.949 134.864 174.437 136.272L167.669 155.28L165.893 158.64L155.429 134.88C154.885 133.632 154.341 132.88 153.797 132.624C153.285 132.336 152.837 132.192 152.453 132.192V131.184C153.509 131.28 154.597 131.36 155.717 131.424C156.869 131.456 157.973 131.472 159.029 131.472C160.341 131.472 161.541 131.44 162.629 131.376C163.717 131.312 164.741 131.248 165.701 131.184V132.192C165.061 132.192 164.453 132.24 163.877 132.336C163.333 132.4 162.949 132.624 162.725 133.008C162.533 133.36 162.629 133.984 163.013 134.88L169.061 149.472L168.629 149.76L172.181 139.824C172.789 138.096 173.045 136.688 172.949 135.6C172.853 134.48 172.501 133.648 171.893 133.104C171.285 132.528 170.453 132.208 169.397 132.144V131.184C169.909 131.216 170.437 131.248 170.981 131.28C171.525 131.28 172.069 131.296 172.613 131.328C173.157 131.328 173.637 131.328 174.053 131.328C174.693 131.328 175.365 131.312 176.069 131.28C176.773 131.248 177.333 131.216 177.749 131.184ZM167.669 155.28L165.845 160.416C165.525 161.216 165.189 161.888 164.837 162.432C164.517 163.008 164.149 163.472 163.733 163.824C163.285 164.208 162.709 164.496 162.005 164.688C161.301 164.912 160.485 165.024 159.557 165.024C158.789 165.024 157.989 164.896 157.157 164.64C156.357 164.384 155.685 163.968 155.141 163.392C154.597 162.816 154.325 162.08 154.325 161.184C154.325 160.192 154.677 159.392 155.381 158.784C156.085 158.208 157.013 157.92 158.165 157.92C159.221 157.92 160.085 158.176 160.757 158.688C161.429 159.2 161.765 159.952 161.765 160.944C161.765 161.584 161.557 162.192 161.141 162.768C160.757 163.344 160.165 163.776 159.365 164.064C159.525 164.096 159.717 164.112 159.941 164.112C160.165 164.112 160.341 164.112 160.469 164.112C161.429 164.112 162.277 163.808 163.013 163.2C163.749 162.592 164.357 161.632 164.837 160.32L166.517 155.376L167.669 155.28ZM202.499 126.912V138.24H213.635V139.68H202.499V150.96H200.771V139.68H189.587V138.24H200.771V126.912H202.499ZM236.912 118.416V151.536C236.912 152.88 237.12 153.792 237.536 154.272C237.984 154.752 238.736 154.992 239.792 154.992V156C239.184 155.968 238.288 155.936 237.104 155.904C235.952 155.84 234.768 155.808 233.552 155.808C232.304 155.808 231.04 155.84 229.76 155.904C228.512 155.936 227.568 155.968 226.928 156V154.992C228.048 154.992 228.832 154.752 229.28 154.272C229.76 153.792 230 152.88 230 151.536V124.176C230 122.736 229.776 121.68 229.328 121.008C228.912 120.304 228.112 119.952 226.928 119.952V118.944C227.952 119.04 228.944 119.088 229.904 119.088C231.216 119.088 232.464 119.04 233.648 118.944C234.832 118.816 235.92 118.64 236.912 118.416ZM252.56 131.184V132.144C251.568 132.336 250.576 132.752 249.584 133.392C248.592 134.032 247.584 134.848 246.56 135.84L242.864 139.68L243.344 138.768L251.552 152.496C251.904 153.072 252.272 153.584 252.656 154.032C253.04 154.48 253.504 154.8 254.048 154.992V156C253.568 155.968 252.848 155.936 251.888 155.904C250.928 155.84 249.968 155.808 249.008 155.808C247.824 155.808 246.64 155.84 245.456 155.904C244.272 155.936 243.392 155.968 242.816 156V154.992C243.456 154.992 243.888 154.848 244.112 154.56C244.336 154.24 244.304 153.84 244.016 153.36L239.264 144.768C238.88 144.16 238.496 143.776 238.112 143.616C237.76 143.424 237.28 143.312 236.672 143.28V142.368C237.344 142.304 237.92 142.192 238.4 142.032C238.912 141.872 239.376 141.568 239.792 141.12L243.44 137.568C244.528 136.544 245.072 135.632 245.072 134.832C245.072 134.032 244.72 133.392 244.016 132.912C243.344 132.432 242.448 132.176 241.328 132.144V131.184C242.224 131.216 243.2 131.248 244.256 131.28C245.312 131.312 246.208 131.328 246.944 131.328C247.584 131.328 248.256 131.328 248.96 131.328C249.696 131.296 250.384 131.28 251.024 131.28C251.664 131.248 252.176 131.216 252.56 131.184ZM261.486 118.8C262.83 118.8 263.886 119.136 264.654 119.808C265.454 120.448 265.854 121.344 265.854 122.496C265.854 123.648 265.454 124.56 264.654 125.232C263.886 125.872 262.83 126.192 261.486 126.192C260.142 126.192 259.07 125.872 258.27 125.232C257.502 124.56 257.118 123.648 257.118 122.496C257.118 121.344 257.502 120.448 258.27 119.808C259.07 119.136 260.142 118.8 261.486 118.8ZM265.23 130.656V151.536C265.23 152.88 265.454 153.792 265.902 154.272C266.382 154.752 267.182 154.992 268.302 154.992V156C267.726 155.968 266.83 155.936 265.614 155.904C264.398 155.84 263.166 155.808 261.918 155.808C260.67 155.808 259.406 155.84 258.126 155.904C256.846 155.936 255.886 155.968 255.246 156V154.992C256.366 154.992 257.15 154.752 257.598 154.272C258.078 153.792 258.318 152.88 258.318 151.536V136.416C258.318 134.976 258.094 133.92 257.646 133.248C257.23 132.544 256.43 132.192 255.246 132.192V131.184C256.27 131.28 257.262 131.328 258.222 131.328C259.566 131.328 260.814 131.28 261.966 131.184C263.15 131.056 264.238 130.88 265.23 130.656ZM280.13 123.312V131.184H285.794V132.144H280.13V151.536C280.13 152.496 280.306 153.184 280.658 153.6C281.01 153.984 281.538 154.176 282.242 154.176C282.818 154.176 283.394 153.968 283.97 153.552C284.546 153.104 285.058 152.352 285.506 151.296L286.322 151.728C285.81 153.168 285.026 154.352 283.97 155.28C282.946 156.208 281.538 156.672 279.746 156.672C278.69 156.672 277.762 156.528 276.962 156.24C276.162 155.984 275.49 155.584 274.946 155.04C274.242 154.336 273.778 153.472 273.554 152.448C273.33 151.392 273.218 150.032 273.218 148.368V132.144H269.186V131.184H273.218V124.848C274.562 124.848 275.794 124.736 276.914 124.512C278.066 124.256 279.138 123.856 280.13 123.312ZM299.554 130.512C300.802 130.512 301.938 130.656 302.962 130.944C304.018 131.2 304.882 131.536 305.554 131.952C306.386 132.464 307.026 133.104 307.474 133.872C307.954 134.608 308.194 135.472 308.194 136.464C308.194 137.584 307.842 138.512 307.138 139.248C306.434 139.952 305.522 140.304 304.402 140.304C303.282 140.304 302.386 139.984 301.714 139.344C301.042 138.704 300.706 137.84 300.706 136.752C300.706 135.728 301.026 134.88 301.666 134.208C302.306 133.504 303.042 133.04 303.874 132.816C303.618 132.496 303.234 132.224 302.722 132C302.21 131.776 301.634 131.664 300.994 131.664C300.002 131.664 299.122 131.952 298.354 132.528C297.618 133.104 296.994 133.904 296.482 134.928C295.97 135.952 295.57 137.152 295.282 138.528C295.026 139.904 294.898 141.408 294.898 143.04C294.898 145.504 295.202 147.44 295.81 148.848C296.45 150.256 297.25 151.248 298.21 151.824C299.202 152.4 300.226 152.688 301.282 152.688C301.89 152.688 302.546 152.592 303.25 152.4C303.986 152.208 304.722 151.824 305.458 151.248C306.226 150.672 306.93 149.856 307.57 148.8L308.386 149.088C308.034 150.272 307.458 151.456 306.658 152.64C305.858 153.824 304.818 154.8 303.538 155.568C302.258 156.304 300.69 156.672 298.834 156.672C296.754 156.672 294.866 156.224 293.17 155.328C291.506 154.4 290.162 152.992 289.138 151.104C288.146 149.184 287.65 146.72 287.65 143.712C287.65 140.832 288.162 138.416 289.186 136.464C290.242 134.48 291.666 132.992 293.458 132C295.25 131.008 297.282 130.512 299.554 130.512ZM320.63 118.464V134.976C321.43 133.312 322.502 132.16 323.846 131.52C325.222 130.848 326.758 130.512 328.454 130.512C329.83 130.512 330.934 130.688 331.766 131.04C332.598 131.36 333.254 131.808 333.734 132.384C334.278 132.992 334.662 133.776 334.886 134.736C335.142 135.696 335.27 136.992 335.27 138.624V151.536C335.27 152.88 335.494 153.792 335.942 154.272C336.422 154.752 337.222 154.992 338.342 154.992V156C337.734 155.968 336.806 155.936 335.558 155.904C334.342 155.84 333.158 155.808 332.006 155.808C330.758 155.808 329.542 155.84 328.358 155.904C327.206 155.936 326.342 155.968 325.766 156V154.992C326.726 154.992 327.398 154.752 327.782 154.272C328.166 153.792 328.358 152.88 328.358 151.536V136.608C328.358 135.808 328.278 135.12 328.118 134.544C327.958 133.936 327.654 133.472 327.206 133.152C326.79 132.8 326.182 132.624 325.382 132.624C324.518 132.624 323.718 132.864 322.982 133.344C322.278 133.792 321.702 134.432 321.254 135.264C320.838 136.096 320.63 137.056 320.63 138.144V151.536C320.63 152.88 320.822 153.792 321.206 154.272C321.59 154.752 322.262 154.992 323.222 154.992V156C322.646 155.968 321.798 155.936 320.678 155.904C319.558 155.84 318.422 155.808 317.27 155.808C316.022 155.808 314.758 155.84 313.478 155.904C312.23 155.936 311.286 155.968 310.646 156V154.992C311.766 154.992 312.55 154.752 312.998 154.272C313.478 153.792 313.718 152.88 313.718 151.536V124.224C313.718 122.784 313.494 121.728 313.046 121.056C312.63 120.352 311.83 120 310.646 120V118.992C311.67 119.088 312.662 119.136 313.622 119.136C314.934 119.136 316.182 119.088 317.366 118.992C318.55 118.864 319.638 118.688 320.63 118.464ZM352.474 130.512C355.29 130.512 357.498 131.344 359.098 133.008C360.698 134.672 361.498 137.392 361.498 141.168H345.706L345.61 140.256H355.45C355.482 138.688 355.386 137.248 355.162 135.936C354.938 134.592 354.586 133.52 354.106 132.72C353.626 131.92 352.986 131.52 352.186 131.52C351.066 131.52 350.106 132.224 349.306 133.632C348.538 135.04 348.074 137.376 347.914 140.64L348.058 140.928C348.026 141.312 347.994 141.712 347.962 142.128C347.962 142.544 347.962 142.976 347.962 143.424C347.962 145.632 348.266 147.424 348.874 148.8C349.514 150.176 350.314 151.184 351.273 151.824C352.234 152.432 353.21 152.736 354.202 152.736C354.874 152.736 355.562 152.64 356.266 152.448C357.002 152.224 357.738 151.84 358.474 151.296C359.21 150.72 359.898 149.92 360.538 148.896L361.402 149.184C361.018 150.4 360.41 151.584 359.578 152.736C358.746 153.888 357.69 154.832 356.41 155.568C355.13 156.304 353.594 156.672 351.802 156.672C349.626 156.672 347.706 156.208 346.042 155.28C344.378 154.352 343.066 152.944 342.105 151.056C341.178 149.168 340.714 146.768 340.714 143.856C340.714 140.88 341.21 138.4 342.202 136.416C343.226 134.432 344.618 132.96 346.378 132C348.17 131.008 350.202 130.512 352.474 130.512ZM381.852 130.512C383.196 130.512 384.284 130.688 385.116 131.04C385.98 131.36 386.652 131.808 387.132 132.384C387.644 132.992 388.012 133.776 388.236 134.736C388.492 135.696 388.62 136.992 388.62 138.624V151.536C388.62 152.88 388.844 153.792 389.292 154.272C389.772 154.752 390.572 154.992 391.692 154.992V156C391.084 155.968 390.172 155.936 388.956 155.904C387.74 155.84 386.54 155.808 385.356 155.808C384.14 155.808 382.94 155.84 381.756 155.904C380.604 155.936 379.724 155.968 379.116 156V154.992C380.076 154.992 380.748 154.752 381.132 154.272C381.516 153.792 381.708 152.88 381.708 151.536V136.608C381.708 135.808 381.628 135.12 381.468 134.544C381.308 133.936 381.02 133.472 380.604 133.152C380.188 132.8 379.564 132.624 378.732 132.624C377.868 132.624 377.068 132.864 376.332 133.344C375.628 133.824 375.052 134.496 374.604 135.36C374.188 136.192 373.98 137.136 373.98 138.192V151.536C373.98 152.88 374.172 153.792 374.556 154.272C374.972 154.752 375.644 154.992 376.572 154.992V156C375.996 155.968 375.148 155.936 374.028 155.904C372.94 155.84 371.804 155.808 370.62 155.808C369.404 155.808 368.156 155.84 366.876 155.904C365.596 155.936 364.636 155.968 363.996 156V154.992C365.116 154.992 365.9 154.752 366.348 154.272C366.828 153.792 367.068 152.88 367.068 151.536V136.416C367.068 134.976 366.844 133.92 366.396 133.248C365.98 132.544 365.18 132.192 363.996 132.192V131.184C365.02 131.28 366.012 131.328 366.972 131.328C368.316 131.328 369.564 131.28 370.716 131.184C371.9 131.056 372.988 130.88 373.98 130.656V134.976C374.78 133.344 375.868 132.192 377.244 131.52C378.62 130.848 380.156 130.512 381.852 130.512Z" fill="white"/>
</g>
<defs>
<filter id="filter0_d_2_7" x="0.800003" y="26.016" width="415.217" height="60.992" filterUnits="userSpaceOnUse" color-interpolation-filters="sRGB">
<feFlood flood-opacity="0" result="BackgroundImageFix"/>
<feColorMatrix in="SourceAlpha" type="matrix" values="0 0 0 0 0 0 0 0 0 0 0 0 0 0 0 0 0 0 127 0" result="hardAlpha"/>
<feOffset dy="4"/>
<feGaussianBlur stdDeviation="2"/>
<feComposite in2="hardAlpha" operator="out"/>
<feColorMatrix type="matrix" values="0 0 0 0 0 0 0 0 0 0 0 0 0 0 0 0 0 0 0.25 0"/>
<feBlend mode="normal" in2="BackgroundImageFix" result="effect1_dropShadow_2_7"/>
<feBlend mode="normal" in="SourceGraphic" in2="effect1_dropShadow_2_7" result="shape"/>
</filter>
<filter id="filter1_d_2_7" x="19.396" y="118.416" width="376.296" height="54.608" filterUnits="userSpaceOnUse" color-interpolation-filters="sRGB">
<feFlood flood-opacity="0" result="BackgroundImageFix"/>
<feColorMatrix in="SourceAlpha" type="matrix" values="0 0 0 0 0 0 0 0 0 0 0 0 0 0 0 0 0 0 127 0" result="hardAlpha"/>
<feOffset dy="4"/>
<feGaussianBlur stdDeviation="2"/>
<feComposite in2="hardAlpha" operator="out"/>
<feColorMatrix type="matrix" values="0 0 0 0 0 0 0 0 0 0 0 0 0 0 0 0 0 0 0.25 0"/>
<feBlend mode="normal" in2="BackgroundImageFix" result="effect1_dropShadow_2_7"/>
<feBlend mode="normal" in="SourceGraphic" in2="effect1_dropShadow_2_7" result="shape"/>
</filter>
</defs>
</svg>
